<?xml version="1.0" encoding="UTF-8"?>
<svg id="Layer_1" data-name="Layer 1" xmlns="http://www.w3.org/2000/svg" viewBox="0 0 100 50">
  <defs>
    <style>
      .cls-1 {
        fill: #05021c;
      }

      .cls-2 {
        fill: #fff;
      }
    </style>
  </defs>
  <g>
    <circle class="cls-2" cx="25" cy="25" r="9.48"/>
    <polygon class="cls-2" points="25 5.65 26.47 9.39 27.94 13.13 25 13.13 22.06 13.13 23.53 9.39 25 5.65"/>
    <polygon class="cls-2" points="11.32 11.32 15 12.92 18.69 14.53 16.61 16.61 14.53 18.69 12.92 15 11.32 11.32"/>
    <polygon class="cls-2" points="5.65 25 9.39 23.53 13.13 22.06 13.13 25 13.13 27.94 9.39 26.47 5.65 25"/>
    <polygon class="cls-2" points="11.32 38.68 12.92 35 14.53 31.31 16.61 33.39 18.69 35.47 15 37.08 11.32 38.68"/>
    <polygon class="cls-2" points="25 44.35 23.53 40.61 22.06 36.87 25 36.87 27.94 36.87 26.47 40.61 25 44.35"/>
    <polygon class="cls-2" points="38.68 38.68 35 37.08 31.31 35.47 33.39 33.39 35.47 31.31 37.08 35 38.68 38.68"/>
    <polygon class="cls-2" points="44.35 25 40.61 26.47 36.87 27.94 36.87 25 36.87 22.06 40.61 23.53 44.35 25"/>
    <polygon class="cls-2" points="38.68 11.32 37.08 15 35.47 18.69 33.39 16.61 31.31 14.53 35 12.92 38.68 11.32"/>
  </g>
  <path class="cls-1" d="M85.52,38.04c-1.95,.97-4.15,1.52-6.48,1.52-8.04,0-14.56-6.52-14.56-14.56s6.52-14.56,14.56-14.56c2.33,0,4.52,.55,6.48,1.52-4.79,2.38-8.08,7.33-8.08,13.04s3.29,10.66,8.08,13.04Z"/>
</svg>